<mxfile host="app.diagrams.net" modified="2023-05-25T14:02:18.430Z" agent="Mozilla/5.0 (Windows NT 10.0; Win64; x64) AppleWebKit/537.36 (KHTML, like Gecko) Chrome/113.0.0.0 Safari/537.36" etag="XZxHsSc-07DuZNG7Pbon" version="21.3.4" type="device">
  <diagram name="Seite-1" id="HqBW4fTeCPGUdDQ781vC">
    <mxGraphModel dx="1235" dy="669" grid="1" gridSize="10" guides="1" tooltips="1" connect="1" arrows="1" fold="1" page="1" pageScale="1" pageWidth="1169" pageHeight="1654" math="0" shadow="0">
      <root>
        <mxCell id="0" />
        <mxCell id="1" parent="0" />
        <mxCell id="SHAmAD_ecb-zwq3bcNpp-117" value="Process&amp;nbsp; &lt;br&gt;package" style="shape=cube;whiteSpace=wrap;html=1;boundedLbl=1;backgroundOutline=1;darkOpacity=0.05;darkOpacity2=0.1;fontFamily=Helvetica;fontSize=11;verticalAlign=middle;labelPosition=right;verticalLabelPosition=middle;align=left;fillColor=#f8cecc;strokeColor=#b85450;" vertex="1" parent="1">
          <mxGeometry x="920" y="146.25" width="180" height="212.5" as="geometry" />
        </mxCell>
        <mxCell id="SHAmAD_ecb-zwq3bcNpp-87" style="edgeStyle=orthogonalEdgeStyle;shape=connector;rounded=0;orthogonalLoop=1;jettySize=auto;html=1;labelBackgroundColor=default;strokeColor=default;fontFamily=Helvetica;fontSize=11;fontColor=default;endArrow=classic;" edge="1" parent="1" source="XJ6b9KdQrqp1vy3ghaq9-3" target="XJ6b9KdQrqp1vy3ghaq9-11">
          <mxGeometry relative="1" as="geometry" />
        </mxCell>
        <mxCell id="XJ6b9KdQrqp1vy3ghaq9-3" value="DVPD" style="shape=note;whiteSpace=wrap;html=1;backgroundOutline=1;darkOpacity=0.05;fillColor=#F3AC0C;gradientColor=none;" parent="1" vertex="1">
          <mxGeometry x="160" y="57.5" width="80" height="32.5" as="geometry" />
        </mxCell>
        <mxCell id="SHAmAD_ecb-zwq3bcNpp-106" style="edgeStyle=orthogonalEdgeStyle;shape=connector;rounded=0;orthogonalLoop=1;jettySize=auto;html=1;entryX=0;entryY=0.5;entryDx=0;entryDy=0;entryPerimeter=0;labelBackgroundColor=default;strokeColor=default;fontFamily=Helvetica;fontSize=11;fontColor=default;endArrow=classic;" edge="1" parent="1" source="XJ6b9KdQrqp1vy3ghaq9-5" target="SHAmAD_ecb-zwq3bcNpp-105">
          <mxGeometry relative="1" as="geometry" />
        </mxCell>
        <mxCell id="XJ6b9KdQrqp1vy3ghaq9-5" value="DDL Generator" style="rounded=1;whiteSpace=wrap;html=1;" parent="1" vertex="1">
          <mxGeometry x="240" y="312.5" width="105" height="40" as="geometry" />
        </mxCell>
        <mxCell id="SHAmAD_ecb-zwq3bcNpp-107" style="edgeStyle=orthogonalEdgeStyle;shape=connector;rounded=0;orthogonalLoop=1;jettySize=auto;html=1;entryX=0.5;entryY=0;entryDx=0;entryDy=0;labelBackgroundColor=default;strokeColor=default;fontFamily=Helvetica;fontSize=11;fontColor=default;endArrow=classic;" edge="1" parent="1" source="XJ6b9KdQrqp1vy3ghaq9-11" target="XJ6b9KdQrqp1vy3ghaq9-18">
          <mxGeometry relative="1" as="geometry" />
        </mxCell>
        <mxCell id="XJ6b9KdQrqp1vy3ghaq9-11" value="DVPD Compiler" style="rounded=1;whiteSpace=wrap;html=1;" parent="1" vertex="1">
          <mxGeometry x="90" y="130" width="100" height="45" as="geometry" />
        </mxCell>
        <mxCell id="XJ6b9KdQrqp1vy3ghaq9-18" value="Basic pipeline properties" style="rounded=0;whiteSpace=wrap;html=1;fillColor=#F3AC0C;gradientColor=none;fontSize=10;" parent="1" vertex="1">
          <mxGeometry x="80" y="212.5" width="120" height="20" as="geometry" />
        </mxCell>
        <mxCell id="XJ6b9KdQrqp1vy3ghaq9-25" value="Example A: DDL and Documentation Generation only" style="rounded=0;whiteSpace=wrap;html=1;strokeColor=none;fillColor=#BFBFBF;fontStyle=1;align=left;fontSize=16;" parent="1" vertex="1">
          <mxGeometry x="40" y="20" width="1110" height="30" as="geometry" />
        </mxCell>
        <mxCell id="XJ6b9KdQrqp1vy3ghaq9-26" value="Example B: Code generator" style="rounded=0;whiteSpace=wrap;html=1;strokeColor=none;fillColor=#BFBFBF;fontStyle=1;align=left;fontSize=16;" parent="1" vertex="1">
          <mxGeometry x="40" y="480" width="1100" height="30" as="geometry" />
        </mxCell>
        <mxCell id="XJ6b9KdQrqp1vy3ghaq9-44" value="inkrement &amp;amp; deletion propterties" style="rounded=0;whiteSpace=wrap;html=1;fillColor=#F3AC0C;gradientColor=none;fontSize=10;" parent="1" vertex="1">
          <mxGeometry x="80" y="342.5" width="120" height="30" as="geometry" />
        </mxCell>
        <mxCell id="SHAmAD_ecb-zwq3bcNpp-103" style="edgeStyle=orthogonalEdgeStyle;shape=connector;rounded=0;orthogonalLoop=1;jettySize=auto;html=1;labelBackgroundColor=default;strokeColor=default;fontFamily=Helvetica;fontSize=11;fontColor=default;endArrow=classic;" edge="1" parent="1" source="SHAmAD_ecb-zwq3bcNpp-85" target="XJ6b9KdQrqp1vy3ghaq9-5">
          <mxGeometry relative="1" as="geometry" />
        </mxCell>
        <mxCell id="SHAmAD_ecb-zwq3bcNpp-85" value="structure of &lt;br&gt;data vault tables" style="rounded=0;whiteSpace=wrap;html=1;fillColor=#F3AC0C;gradientColor=none;fontSize=10;" vertex="1" parent="1">
          <mxGeometry x="80" y="282.5" width="120" height="30" as="geometry" />
        </mxCell>
        <mxCell id="SHAmAD_ecb-zwq3bcNpp-88" style="edgeStyle=orthogonalEdgeStyle;shape=connector;rounded=0;orthogonalLoop=1;jettySize=auto;html=1;labelBackgroundColor=default;strokeColor=default;fontFamily=Helvetica;fontSize=11;fontColor=default;endArrow=classic;" edge="1" parent="1" source="SHAmAD_ecb-zwq3bcNpp-86" target="XJ6b9KdQrqp1vy3ghaq9-11">
          <mxGeometry relative="1" as="geometry" />
        </mxCell>
        <mxCell id="SHAmAD_ecb-zwq3bcNpp-86" value="model profile" style="shape=note;whiteSpace=wrap;html=1;backgroundOutline=1;darkOpacity=0.05;fillColor=#F3AC0C;gradientColor=none;size=24;" vertex="1" parent="1">
          <mxGeometry x="40" y="60" width="90" height="30" as="geometry" />
        </mxCell>
        <mxCell id="SHAmAD_ecb-zwq3bcNpp-104" style="edgeStyle=orthogonalEdgeStyle;shape=connector;rounded=0;orthogonalLoop=1;jettySize=auto;html=1;labelBackgroundColor=default;strokeColor=default;fontFamily=Helvetica;fontSize=11;fontColor=default;endArrow=classic;" edge="1" parent="1" source="SHAmAD_ecb-zwq3bcNpp-89">
          <mxGeometry relative="1" as="geometry">
            <mxPoint x="240" y="332.5" as="targetPoint" />
          </mxGeometry>
        </mxCell>
        <mxCell id="SHAmAD_ecb-zwq3bcNpp-89" value="structure of &lt;br&gt;stage table" style="rounded=0;whiteSpace=wrap;html=1;fillColor=#F3AC0C;gradientColor=none;fontSize=10;" vertex="1" parent="1">
          <mxGeometry x="80" y="312.5" width="120" height="30" as="geometry" />
        </mxCell>
        <mxCell id="SHAmAD_ecb-zwq3bcNpp-90" value="process step specifc mapping of data" style="rounded=0;whiteSpace=wrap;html=1;fillColor=#F3AC0C;gradientColor=none;fontSize=10;" vertex="1" parent="1">
          <mxGeometry x="80" y="402.5" width="120" height="30" as="geometry" />
        </mxCell>
        <mxCell id="SHAmAD_ecb-zwq3bcNpp-92" value="Fetch properties of fields" style="rounded=0;whiteSpace=wrap;html=1;fillColor=#F3AC0C;gradientColor=none;fontSize=10;" vertex="1" parent="1">
          <mxGeometry x="80" y="372.5" width="120" height="30" as="geometry" />
        </mxCell>
        <mxCell id="SHAmAD_ecb-zwq3bcNpp-93" value="process step specific hash key assembly mapping" style="rounded=0;whiteSpace=wrap;html=1;fillColor=#F3AC0C;gradientColor=none;fontSize=10;" vertex="1" parent="1">
          <mxGeometry x="80" y="432.5" width="120" height="30" as="geometry" />
        </mxCell>
        <mxCell id="SHAmAD_ecb-zwq3bcNpp-109" style="shape=connector;rounded=0;orthogonalLoop=1;jettySize=auto;html=1;labelBackgroundColor=default;strokeColor=default;fontFamily=Helvetica;fontSize=11;fontColor=default;endArrow=classic;dashed=1;" edge="1" parent="1" source="SHAmAD_ecb-zwq3bcNpp-94" target="SHAmAD_ecb-zwq3bcNpp-108">
          <mxGeometry relative="1" as="geometry" />
        </mxCell>
        <mxCell id="SHAmAD_ecb-zwq3bcNpp-94" value="Model Documentation" style="shape=note;whiteSpace=wrap;html=1;backgroundOutline=1;darkOpacity=0.05;size=15;" vertex="1" parent="1">
          <mxGeometry x="390" y="200" width="105" height="50" as="geometry" />
        </mxCell>
        <mxCell id="SHAmAD_ecb-zwq3bcNpp-111" style="edgeStyle=none;shape=connector;rounded=0;orthogonalLoop=1;jettySize=auto;html=1;dashed=1;labelBackgroundColor=default;strokeColor=default;fontFamily=Helvetica;fontSize=11;fontColor=default;endArrow=classic;" edge="1" parent="1" source="SHAmAD_ecb-zwq3bcNpp-95" target="SHAmAD_ecb-zwq3bcNpp-108">
          <mxGeometry relative="1" as="geometry" />
        </mxCell>
        <mxCell id="SHAmAD_ecb-zwq3bcNpp-95" value="Mapping Documentation" style="shape=note;whiteSpace=wrap;html=1;backgroundOutline=1;darkOpacity=0.05;size=15;" vertex="1" parent="1">
          <mxGeometry x="390" y="250" width="105" height="40" as="geometry" />
        </mxCell>
        <mxCell id="SHAmAD_ecb-zwq3bcNpp-100" style="edgeStyle=orthogonalEdgeStyle;shape=connector;rounded=0;orthogonalLoop=1;jettySize=auto;html=1;labelBackgroundColor=default;strokeColor=default;fontFamily=Helvetica;fontSize=11;fontColor=default;endArrow=classic;" edge="1" parent="1" source="SHAmAD_ecb-zwq3bcNpp-96" target="SHAmAD_ecb-zwq3bcNpp-98">
          <mxGeometry relative="1" as="geometry">
            <mxPoint x="240" y="252.5" as="targetPoint" />
          </mxGeometry>
        </mxCell>
        <mxCell id="SHAmAD_ecb-zwq3bcNpp-96" value="Mapping of fields to model" style="rounded=0;whiteSpace=wrap;html=1;fillColor=#F3AC0C;gradientColor=none;fontSize=10;" vertex="1" parent="1">
          <mxGeometry x="80" y="257.5" width="120" height="25" as="geometry" />
        </mxCell>
        <mxCell id="SHAmAD_ecb-zwq3bcNpp-99" style="edgeStyle=orthogonalEdgeStyle;shape=connector;rounded=0;orthogonalLoop=1;jettySize=auto;html=1;entryX=0;entryY=0.5;entryDx=0;entryDy=0;labelBackgroundColor=default;strokeColor=default;fontFamily=Helvetica;fontSize=11;fontColor=default;endArrow=classic;" edge="1" parent="1" source="SHAmAD_ecb-zwq3bcNpp-97" target="SHAmAD_ecb-zwq3bcNpp-98">
          <mxGeometry relative="1" as="geometry" />
        </mxCell>
        <mxCell id="SHAmAD_ecb-zwq3bcNpp-97" value="Data Vault&amp;nbsp;Tables &amp;amp; Relations" style="rounded=0;whiteSpace=wrap;html=1;fillColor=#F3AC0C;gradientColor=none;fontSize=10;" vertex="1" parent="1">
          <mxGeometry x="80" y="232.5" width="120" height="25" as="geometry" />
        </mxCell>
        <mxCell id="SHAmAD_ecb-zwq3bcNpp-101" style="edgeStyle=orthogonalEdgeStyle;shape=connector;rounded=0;orthogonalLoop=1;jettySize=auto;html=1;labelBackgroundColor=default;strokeColor=default;fontFamily=Helvetica;fontSize=11;fontColor=default;endArrow=classic;" edge="1" parent="1" source="SHAmAD_ecb-zwq3bcNpp-98" target="SHAmAD_ecb-zwq3bcNpp-94">
          <mxGeometry relative="1" as="geometry" />
        </mxCell>
        <mxCell id="SHAmAD_ecb-zwq3bcNpp-102" style="edgeStyle=orthogonalEdgeStyle;shape=connector;rounded=0;orthogonalLoop=1;jettySize=auto;html=1;labelBackgroundColor=default;strokeColor=default;fontFamily=Helvetica;fontSize=11;fontColor=default;endArrow=classic;" edge="1" parent="1" source="SHAmAD_ecb-zwq3bcNpp-98" target="SHAmAD_ecb-zwq3bcNpp-95">
          <mxGeometry relative="1" as="geometry" />
        </mxCell>
        <mxCell id="SHAmAD_ecb-zwq3bcNpp-98" value="Documentation&lt;br&gt;Generator" style="rounded=1;whiteSpace=wrap;html=1;" vertex="1" parent="1">
          <mxGeometry x="245" y="232.5" width="105" height="40" as="geometry" />
        </mxCell>
        <mxCell id="SHAmAD_ecb-zwq3bcNpp-116" style="edgeStyle=none;shape=connector;rounded=0;orthogonalLoop=1;jettySize=auto;html=1;labelBackgroundColor=default;strokeColor=default;fontFamily=Helvetica;fontSize=11;fontColor=default;endArrow=classic;" edge="1" parent="1" source="SHAmAD_ecb-zwq3bcNpp-105" target="SHAmAD_ecb-zwq3bcNpp-115">
          <mxGeometry relative="1" as="geometry" />
        </mxCell>
        <mxCell id="SHAmAD_ecb-zwq3bcNpp-105" value="Create Statements" style="shape=note;whiteSpace=wrap;html=1;backgroundOutline=1;darkOpacity=0.05;size=15;" vertex="1" parent="1">
          <mxGeometry x="390" y="307.5" width="105" height="50" as="geometry" />
        </mxCell>
        <mxCell id="SHAmAD_ecb-zwq3bcNpp-114" style="edgeStyle=none;shape=connector;rounded=0;orthogonalLoop=1;jettySize=auto;html=1;entryX=0.007;entryY=0.421;entryDx=0;entryDy=0;entryPerimeter=0;labelBackgroundColor=default;strokeColor=default;fontFamily=Helvetica;fontSize=11;fontColor=default;endArrow=classic;" edge="1" parent="1" source="SHAmAD_ecb-zwq3bcNpp-108" target="SHAmAD_ecb-zwq3bcNpp-112">
          <mxGeometry relative="1" as="geometry" />
        </mxCell>
        <mxCell id="SHAmAD_ecb-zwq3bcNpp-171" style="edgeStyle=none;shape=connector;rounded=0;orthogonalLoop=1;jettySize=auto;html=1;entryX=0;entryY=0.5;entryDx=0;entryDy=0;labelBackgroundColor=default;strokeColor=default;fontFamily=Helvetica;fontSize=11;fontColor=default;endArrow=classic;" edge="1" parent="1" source="SHAmAD_ecb-zwq3bcNpp-108" target="SHAmAD_ecb-zwq3bcNpp-113">
          <mxGeometry relative="1" as="geometry" />
        </mxCell>
        <mxCell id="SHAmAD_ecb-zwq3bcNpp-108" value="DWH Developer" style="shape=umlActor;verticalLabelPosition=bottom;verticalAlign=top;html=1;outlineConnect=0;fontFamily=Helvetica;fontSize=11;fontColor=default;" vertex="1" parent="1">
          <mxGeometry x="550" y="210" width="30" height="60" as="geometry" />
        </mxCell>
        <mxCell id="SHAmAD_ecb-zwq3bcNpp-124" style="edgeStyle=none;shape=connector;rounded=0;orthogonalLoop=1;jettySize=auto;html=1;labelBackgroundColor=default;strokeColor=default;fontFamily=Helvetica;fontSize=11;fontColor=default;endArrow=classic;" edge="1" parent="1" source="SHAmAD_ecb-zwq3bcNpp-112" target="SHAmAD_ecb-zwq3bcNpp-118">
          <mxGeometry relative="1" as="geometry" />
        </mxCell>
        <mxCell id="SHAmAD_ecb-zwq3bcNpp-112" value="deployment code&lt;br&gt;fetch code&lt;br&gt;stage code&lt;br&gt;load code" style="shape=process;whiteSpace=wrap;html=1;backgroundOutline=1;fontFamily=Helvetica;fontSize=11;fontColor=default;" vertex="1" parent="1">
          <mxGeometry x="650" y="213.75" width="140" height="70" as="geometry" />
        </mxCell>
        <mxCell id="SHAmAD_ecb-zwq3bcNpp-125" style="edgeStyle=none;shape=connector;rounded=0;orthogonalLoop=1;jettySize=auto;html=1;labelBackgroundColor=default;strokeColor=default;fontFamily=Helvetica;fontSize=11;fontColor=default;endArrow=classic;exitX=1;exitY=0.5;exitDx=0;exitDy=0;" edge="1" parent="1" source="SHAmAD_ecb-zwq3bcNpp-113" target="SHAmAD_ecb-zwq3bcNpp-118">
          <mxGeometry relative="1" as="geometry" />
        </mxCell>
        <mxCell id="SHAmAD_ecb-zwq3bcNpp-113" value="load famework &lt;br&gt;libaries" style="shape=process;whiteSpace=wrap;html=1;backgroundOutline=1;fontFamily=Helvetica;fontSize=11;fontColor=default;" vertex="1" parent="1">
          <mxGeometry x="650" y="171.25" width="140" height="42.5" as="geometry" />
        </mxCell>
        <mxCell id="SHAmAD_ecb-zwq3bcNpp-123" style="edgeStyle=none;shape=connector;rounded=0;orthogonalLoop=1;jettySize=auto;html=1;labelBackgroundColor=default;strokeColor=default;fontFamily=Helvetica;fontSize=11;fontColor=default;endArrow=classic;entryX=0.25;entryY=1;entryDx=0;entryDy=0;" edge="1" parent="1" source="SHAmAD_ecb-zwq3bcNpp-115" target="SHAmAD_ecb-zwq3bcNpp-118">
          <mxGeometry relative="1" as="geometry" />
        </mxCell>
        <mxCell id="SHAmAD_ecb-zwq3bcNpp-115" value="Create Statements" style="shape=note;whiteSpace=wrap;html=1;backgroundOutline=1;darkOpacity=0.05;size=15;dashed=1;" vertex="1" parent="1">
          <mxGeometry x="670" y="307.5" width="105" height="50" as="geometry" />
        </mxCell>
        <mxCell id="SHAmAD_ecb-zwq3bcNpp-126" style="edgeStyle=none;shape=connector;rounded=0;orthogonalLoop=1;jettySize=auto;html=1;labelBackgroundColor=default;strokeColor=default;fontFamily=Helvetica;fontSize=11;fontColor=default;endArrow=classic;" edge="1" parent="1" source="SHAmAD_ecb-zwq3bcNpp-118" target="SHAmAD_ecb-zwq3bcNpp-117">
          <mxGeometry relative="1" as="geometry" />
        </mxCell>
        <mxCell id="SHAmAD_ecb-zwq3bcNpp-118" value="CI/CD" style="rounded=1;whiteSpace=wrap;html=1;" vertex="1" parent="1">
          <mxGeometry x="820" y="232.5" width="70" height="40" as="geometry" />
        </mxCell>
        <mxCell id="SHAmAD_ecb-zwq3bcNpp-119" value="deployment code&lt;br&gt;fetch code&lt;br&gt;stage code&lt;br&gt;load code" style="shape=process;whiteSpace=wrap;html=1;backgroundOutline=1;fontFamily=Helvetica;fontSize=11;fontColor=default;dashed=1;" vertex="1" parent="1">
          <mxGeometry x="950" y="216.25" width="140" height="70" as="geometry" />
        </mxCell>
        <mxCell id="SHAmAD_ecb-zwq3bcNpp-120" value="famework libaries" style="shape=process;whiteSpace=wrap;html=1;backgroundOutline=1;fontFamily=Helvetica;fontSize=11;fontColor=default;dashed=1;" vertex="1" parent="1">
          <mxGeometry x="950" y="173.75" width="140" height="42.5" as="geometry" />
        </mxCell>
        <mxCell id="SHAmAD_ecb-zwq3bcNpp-121" value="Create Statements" style="shape=note;whiteSpace=wrap;html=1;backgroundOutline=1;darkOpacity=0.05;size=15;dashed=1;" vertex="1" parent="1">
          <mxGeometry x="967.5" y="292.5" width="105" height="50" as="geometry" />
        </mxCell>
        <mxCell id="SHAmAD_ecb-zwq3bcNpp-127" value="Process&amp;nbsp; package" style="shape=cube;whiteSpace=wrap;html=1;boundedLbl=1;backgroundOutline=1;darkOpacity=0.05;darkOpacity2=0.1;fontFamily=Helvetica;fontSize=11;verticalAlign=bottom;labelPosition=center;verticalLabelPosition=top;align=center;fillColor=#f8cecc;strokeColor=#b85450;" vertex="1" parent="1">
          <mxGeometry x="770" y="700" width="180" height="212.5" as="geometry" />
        </mxCell>
        <mxCell id="SHAmAD_ecb-zwq3bcNpp-128" style="edgeStyle=orthogonalEdgeStyle;shape=connector;rounded=0;orthogonalLoop=1;jettySize=auto;html=1;labelBackgroundColor=default;strokeColor=default;fontFamily=Helvetica;fontSize=11;fontColor=default;endArrow=classic;" edge="1" source="SHAmAD_ecb-zwq3bcNpp-129" target="SHAmAD_ecb-zwq3bcNpp-133" parent="1">
          <mxGeometry relative="1" as="geometry" />
        </mxCell>
        <mxCell id="SHAmAD_ecb-zwq3bcNpp-129" value="DVPD" style="shape=note;whiteSpace=wrap;html=1;backgroundOutline=1;darkOpacity=0.05;fillColor=#F3AC0C;gradientColor=none;" vertex="1" parent="1">
          <mxGeometry x="160" y="530" width="80" height="32.5" as="geometry" />
        </mxCell>
        <mxCell id="SHAmAD_ecb-zwq3bcNpp-130" style="edgeStyle=orthogonalEdgeStyle;shape=connector;rounded=0;orthogonalLoop=1;jettySize=auto;html=1;entryX=0;entryY=0.5;entryDx=0;entryDy=0;entryPerimeter=0;labelBackgroundColor=default;strokeColor=default;fontFamily=Helvetica;fontSize=11;fontColor=default;endArrow=classic;" edge="1" source="SHAmAD_ecb-zwq3bcNpp-131" target="SHAmAD_ecb-zwq3bcNpp-157" parent="1">
          <mxGeometry relative="1" as="geometry" />
        </mxCell>
        <mxCell id="SHAmAD_ecb-zwq3bcNpp-131" value="DDL Generator" style="rounded=1;whiteSpace=wrap;html=1;" vertex="1" parent="1">
          <mxGeometry x="240" y="705" width="105" height="40" as="geometry" />
        </mxCell>
        <mxCell id="SHAmAD_ecb-zwq3bcNpp-132" style="edgeStyle=orthogonalEdgeStyle;shape=connector;rounded=0;orthogonalLoop=1;jettySize=auto;html=1;entryX=0.5;entryY=0;entryDx=0;entryDy=0;labelBackgroundColor=default;strokeColor=default;fontFamily=Helvetica;fontSize=11;fontColor=default;endArrow=classic;" edge="1" source="SHAmAD_ecb-zwq3bcNpp-133" target="SHAmAD_ecb-zwq3bcNpp-134" parent="1">
          <mxGeometry relative="1" as="geometry" />
        </mxCell>
        <mxCell id="SHAmAD_ecb-zwq3bcNpp-133" value="DVPD Compiler" style="rounded=1;whiteSpace=wrap;html=1;" vertex="1" parent="1">
          <mxGeometry x="90" y="602.5" width="100" height="45" as="geometry" />
        </mxCell>
        <mxCell id="SHAmAD_ecb-zwq3bcNpp-134" value="Basic pipeline properties" style="rounded=0;whiteSpace=wrap;html=1;fillColor=#F3AC0C;gradientColor=none;fontSize=10;" vertex="1" parent="1">
          <mxGeometry x="80" y="685" width="120" height="20" as="geometry" />
        </mxCell>
        <mxCell id="SHAmAD_ecb-zwq3bcNpp-174" style="edgeStyle=orthogonalEdgeStyle;shape=connector;rounded=0;orthogonalLoop=1;jettySize=auto;html=1;entryX=0;entryY=0.5;entryDx=0;entryDy=0;labelBackgroundColor=default;strokeColor=default;fontFamily=Helvetica;fontSize=11;fontColor=default;endArrow=classic;" edge="1" parent="1" source="SHAmAD_ecb-zwq3bcNpp-135" target="SHAmAD_ecb-zwq3bcNpp-155">
          <mxGeometry relative="1" as="geometry" />
        </mxCell>
        <mxCell id="SHAmAD_ecb-zwq3bcNpp-135" value="inkrement &amp;amp; deletion propterties" style="rounded=0;whiteSpace=wrap;html=1;fillColor=#F3AC0C;gradientColor=none;fontSize=10;" vertex="1" parent="1">
          <mxGeometry x="80" y="815" width="120" height="30" as="geometry" />
        </mxCell>
        <mxCell id="SHAmAD_ecb-zwq3bcNpp-136" style="edgeStyle=orthogonalEdgeStyle;shape=connector;rounded=0;orthogonalLoop=1;jettySize=auto;html=1;labelBackgroundColor=default;strokeColor=default;fontFamily=Helvetica;fontSize=11;fontColor=default;endArrow=classic;" edge="1" source="SHAmAD_ecb-zwq3bcNpp-137" target="SHAmAD_ecb-zwq3bcNpp-131" parent="1">
          <mxGeometry relative="1" as="geometry">
            <Array as="points">
              <mxPoint x="220" y="770" />
              <mxPoint x="220" y="725" />
            </Array>
          </mxGeometry>
        </mxCell>
        <mxCell id="SHAmAD_ecb-zwq3bcNpp-137" value="structure of &lt;br&gt;data vault tables" style="rounded=0;whiteSpace=wrap;html=1;fillColor=#F3AC0C;gradientColor=none;fontSize=10;" vertex="1" parent="1">
          <mxGeometry x="80" y="755" width="120" height="30" as="geometry" />
        </mxCell>
        <mxCell id="SHAmAD_ecb-zwq3bcNpp-138" style="edgeStyle=orthogonalEdgeStyle;shape=connector;rounded=0;orthogonalLoop=1;jettySize=auto;html=1;labelBackgroundColor=default;strokeColor=default;fontFamily=Helvetica;fontSize=11;fontColor=default;endArrow=classic;" edge="1" source="SHAmAD_ecb-zwq3bcNpp-139" target="SHAmAD_ecb-zwq3bcNpp-133" parent="1">
          <mxGeometry relative="1" as="geometry" />
        </mxCell>
        <mxCell id="SHAmAD_ecb-zwq3bcNpp-139" value="model profile" style="shape=note;whiteSpace=wrap;html=1;backgroundOutline=1;darkOpacity=0.05;fillColor=#F3AC0C;gradientColor=none;size=24;" vertex="1" parent="1">
          <mxGeometry x="40" y="532.5" width="90" height="30" as="geometry" />
        </mxCell>
        <mxCell id="SHAmAD_ecb-zwq3bcNpp-140" style="edgeStyle=orthogonalEdgeStyle;shape=connector;rounded=0;orthogonalLoop=1;jettySize=auto;html=1;labelBackgroundColor=default;strokeColor=default;fontFamily=Helvetica;fontSize=11;fontColor=default;endArrow=classic;" edge="1" source="SHAmAD_ecb-zwq3bcNpp-141" parent="1" target="SHAmAD_ecb-zwq3bcNpp-131">
          <mxGeometry relative="1" as="geometry">
            <mxPoint x="240" y="805" as="targetPoint" />
            <Array as="points">
              <mxPoint x="220" y="800" />
              <mxPoint x="220" y="725" />
            </Array>
          </mxGeometry>
        </mxCell>
        <mxCell id="SHAmAD_ecb-zwq3bcNpp-141" value="structure of &lt;br&gt;stage table" style="rounded=0;whiteSpace=wrap;html=1;fillColor=#F3AC0C;gradientColor=none;fontSize=10;" vertex="1" parent="1">
          <mxGeometry x="80" y="785" width="120" height="30" as="geometry" />
        </mxCell>
        <mxCell id="SHAmAD_ecb-zwq3bcNpp-178" style="edgeStyle=orthogonalEdgeStyle;shape=connector;rounded=0;orthogonalLoop=1;jettySize=auto;html=1;entryX=0;entryY=0.5;entryDx=0;entryDy=0;labelBackgroundColor=default;strokeColor=default;fontFamily=Helvetica;fontSize=11;fontColor=default;endArrow=classic;" edge="1" parent="1" source="SHAmAD_ecb-zwq3bcNpp-142" target="SHAmAD_ecb-zwq3bcNpp-155">
          <mxGeometry relative="1" as="geometry">
            <Array as="points">
              <mxPoint x="220" y="890" />
              <mxPoint x="220" y="830" />
            </Array>
          </mxGeometry>
        </mxCell>
        <mxCell id="SHAmAD_ecb-zwq3bcNpp-142" value="process step specifc mapping of data" style="rounded=0;whiteSpace=wrap;html=1;fillColor=#F3AC0C;gradientColor=none;fontSize=10;" vertex="1" parent="1">
          <mxGeometry x="80" y="875" width="120" height="30" as="geometry" />
        </mxCell>
        <mxCell id="SHAmAD_ecb-zwq3bcNpp-175" style="edgeStyle=orthogonalEdgeStyle;shape=connector;rounded=0;orthogonalLoop=1;jettySize=auto;html=1;labelBackgroundColor=default;strokeColor=default;fontFamily=Helvetica;fontSize=11;fontColor=default;endArrow=classic;" edge="1" parent="1" source="SHAmAD_ecb-zwq3bcNpp-143" target="SHAmAD_ecb-zwq3bcNpp-155">
          <mxGeometry relative="1" as="geometry">
            <Array as="points">
              <mxPoint x="220" y="860" />
              <mxPoint x="220" y="830" />
            </Array>
          </mxGeometry>
        </mxCell>
        <mxCell id="SHAmAD_ecb-zwq3bcNpp-143" value="Fetch properties of fields" style="rounded=0;whiteSpace=wrap;html=1;fillColor=#F3AC0C;gradientColor=none;fontSize=10;" vertex="1" parent="1">
          <mxGeometry x="80" y="845" width="120" height="30" as="geometry" />
        </mxCell>
        <mxCell id="SHAmAD_ecb-zwq3bcNpp-179" style="edgeStyle=orthogonalEdgeStyle;shape=connector;rounded=0;orthogonalLoop=1;jettySize=auto;html=1;entryX=0;entryY=0.5;entryDx=0;entryDy=0;labelBackgroundColor=default;strokeColor=default;fontFamily=Helvetica;fontSize=10;fontColor=default;endArrow=classic;" edge="1" parent="1" source="SHAmAD_ecb-zwq3bcNpp-144" target="SHAmAD_ecb-zwq3bcNpp-155">
          <mxGeometry relative="1" as="geometry">
            <Array as="points">
              <mxPoint x="220" y="920" />
              <mxPoint x="220" y="830" />
            </Array>
          </mxGeometry>
        </mxCell>
        <mxCell id="SHAmAD_ecb-zwq3bcNpp-144" value="process step specific hash key assembly mapping" style="rounded=0;whiteSpace=wrap;html=1;fillColor=#F3AC0C;gradientColor=none;fontSize=10;" vertex="1" parent="1">
          <mxGeometry x="80" y="905" width="120" height="30" as="geometry" />
        </mxCell>
        <mxCell id="SHAmAD_ecb-zwq3bcNpp-150" value="Mapping of fields to model" style="rounded=0;whiteSpace=wrap;html=1;fillColor=#F3AC0C;gradientColor=none;fontSize=10;" vertex="1" parent="1">
          <mxGeometry x="80" y="730" width="120" height="25" as="geometry" />
        </mxCell>
        <mxCell id="SHAmAD_ecb-zwq3bcNpp-152" value="Data Vault&amp;nbsp;Tables &amp;amp; Relations" style="rounded=0;whiteSpace=wrap;html=1;fillColor=#F3AC0C;gradientColor=none;fontSize=10;" vertex="1" parent="1">
          <mxGeometry x="80" y="705" width="120" height="25" as="geometry" />
        </mxCell>
        <mxCell id="SHAmAD_ecb-zwq3bcNpp-187" style="edgeStyle=orthogonalEdgeStyle;shape=connector;rounded=0;orthogonalLoop=1;jettySize=auto;html=1;labelBackgroundColor=default;strokeColor=default;fontFamily=Helvetica;fontSize=10;fontColor=default;endArrow=classic;entryX=-0.011;entryY=0.616;entryDx=0;entryDy=0;entryPerimeter=0;" edge="1" parent="1" source="SHAmAD_ecb-zwq3bcNpp-155" target="SHAmAD_ecb-zwq3bcNpp-127">
          <mxGeometry relative="1" as="geometry" />
        </mxCell>
        <mxCell id="SHAmAD_ecb-zwq3bcNpp-155" value="Code generator" style="rounded=1;whiteSpace=wrap;html=1;" vertex="1" parent="1">
          <mxGeometry x="565" y="795" width="105" height="70" as="geometry" />
        </mxCell>
        <mxCell id="SHAmAD_ecb-zwq3bcNpp-186" style="shape=connector;rounded=0;orthogonalLoop=1;jettySize=auto;html=1;entryX=0.5;entryY=0;entryDx=0;entryDy=0;labelBackgroundColor=default;strokeColor=default;fontFamily=Helvetica;fontSize=10;fontColor=default;endArrow=classic;" edge="1" parent="1" source="SHAmAD_ecb-zwq3bcNpp-157" target="SHAmAD_ecb-zwq3bcNpp-155">
          <mxGeometry relative="1" as="geometry" />
        </mxCell>
        <mxCell id="SHAmAD_ecb-zwq3bcNpp-157" value="Create Statements" style="shape=note;whiteSpace=wrap;html=1;backgroundOutline=1;darkOpacity=0.05;size=15;" vertex="1" parent="1">
          <mxGeometry x="380" y="700" width="105" height="50" as="geometry" />
        </mxCell>
        <mxCell id="SHAmAD_ecb-zwq3bcNpp-168" value="deployment code&lt;br&gt;fetch code&lt;br&gt;stage code&lt;br&gt;load code" style="shape=process;whiteSpace=wrap;html=1;backgroundOutline=1;fontFamily=Helvetica;fontSize=11;fontColor=default;" vertex="1" parent="1">
          <mxGeometry x="800" y="770" width="140" height="70" as="geometry" />
        </mxCell>
        <mxCell id="SHAmAD_ecb-zwq3bcNpp-169" value="libaries" style="shape=process;whiteSpace=wrap;html=1;backgroundOutline=1;fontFamily=Helvetica;fontSize=11;fontColor=default;dashed=1;" vertex="1" parent="1">
          <mxGeometry x="800" y="727.5" width="140" height="42.5" as="geometry" />
        </mxCell>
        <mxCell id="SHAmAD_ecb-zwq3bcNpp-170" value="Create Statements" style="shape=note;whiteSpace=wrap;html=1;backgroundOutline=1;darkOpacity=0.05;size=15;dashed=1;" vertex="1" parent="1">
          <mxGeometry x="817.5" y="846.25" width="105" height="50" as="geometry" />
        </mxCell>
        <mxCell id="SHAmAD_ecb-zwq3bcNpp-183" style="shape=connector;rounded=0;orthogonalLoop=1;jettySize=auto;html=1;labelBackgroundColor=default;strokeColor=default;fontFamily=Helvetica;fontSize=10;fontColor=default;endArrow=classic;" edge="1" parent="1" source="SHAmAD_ecb-zwq3bcNpp-172" target="SHAmAD_ecb-zwq3bcNpp-173">
          <mxGeometry relative="1" as="geometry" />
        </mxCell>
        <mxCell id="SHAmAD_ecb-zwq3bcNpp-172" value="DWH Developer" style="shape=umlActor;verticalLabelPosition=bottom;verticalAlign=top;html=1;outlineConnect=0;fontFamily=Helvetica;fontSize=11;fontColor=default;" vertex="1" parent="1">
          <mxGeometry x="282.5" y="883.75" width="30" height="60" as="geometry" />
        </mxCell>
        <mxCell id="SHAmAD_ecb-zwq3bcNpp-173" value="load famework &lt;br&gt;libaries" style="shape=process;whiteSpace=wrap;html=1;backgroundOutline=1;fontFamily=Helvetica;fontSize=11;fontColor=default;" vertex="1" parent="1">
          <mxGeometry x="382.5" y="892.5" width="140" height="42.5" as="geometry" />
        </mxCell>
        <mxCell id="SHAmAD_ecb-zwq3bcNpp-180" style="edgeStyle=orthogonalEdgeStyle;shape=connector;rounded=0;orthogonalLoop=1;jettySize=auto;html=1;exitX=0.5;exitY=1;exitDx=0;exitDy=0;exitPerimeter=0;labelBackgroundColor=default;strokeColor=default;fontFamily=Helvetica;fontSize=10;fontColor=default;endArrow=classic;" edge="1" parent="1" source="SHAmAD_ecb-zwq3bcNpp-157" target="SHAmAD_ecb-zwq3bcNpp-157">
          <mxGeometry relative="1" as="geometry" />
        </mxCell>
        <mxCell id="SHAmAD_ecb-zwq3bcNpp-181" value="parsing libraries" style="shape=process;whiteSpace=wrap;html=1;backgroundOutline=1;fontFamily=Helvetica;fontSize=11;fontColor=default;" vertex="1" parent="1">
          <mxGeometry x="382.5" y="935" width="140" height="27.5" as="geometry" />
        </mxCell>
        <mxCell id="SHAmAD_ecb-zwq3bcNpp-184" style="shape=connector;rounded=0;orthogonalLoop=1;jettySize=auto;html=1;labelBackgroundColor=default;strokeColor=default;fontFamily=Helvetica;fontSize=10;fontColor=default;endArrow=classic;exitX=1;exitY=0.75;exitDx=0;exitDy=0;" edge="1" parent="1" source="SHAmAD_ecb-zwq3bcNpp-173" target="SHAmAD_ecb-zwq3bcNpp-155">
          <mxGeometry relative="1" as="geometry" />
        </mxCell>
        <mxCell id="SHAmAD_ecb-zwq3bcNpp-182" value="increment pattern libararies" style="shape=process;whiteSpace=wrap;html=1;backgroundOutline=1;fontFamily=Helvetica;fontSize=11;fontColor=default;" vertex="1" parent="1">
          <mxGeometry x="382.5" y="850" width="140" height="42.5" as="geometry" />
        </mxCell>
        <mxCell id="SHAmAD_ecb-zwq3bcNpp-188" value="Example C: Data Vault Tool input&amp;nbsp; generator" style="rounded=0;whiteSpace=wrap;html=1;strokeColor=none;fillColor=#BFBFBF;fontStyle=1;align=left;fontSize=16;" vertex="1" parent="1">
          <mxGeometry x="40" y="1010" width="1100" height="30" as="geometry" />
        </mxCell>
        <mxCell id="SHAmAD_ecb-zwq3bcNpp-189" style="edgeStyle=orthogonalEdgeStyle;shape=connector;rounded=0;orthogonalLoop=1;jettySize=auto;html=1;labelBackgroundColor=default;strokeColor=default;fontFamily=Helvetica;fontSize=11;fontColor=default;endArrow=classic;" edge="1" source="SHAmAD_ecb-zwq3bcNpp-190" target="SHAmAD_ecb-zwq3bcNpp-192" parent="1">
          <mxGeometry relative="1" as="geometry" />
        </mxCell>
        <mxCell id="SHAmAD_ecb-zwq3bcNpp-190" value="DVPD" style="shape=note;whiteSpace=wrap;html=1;backgroundOutline=1;darkOpacity=0.05;fillColor=#F3AC0C;gradientColor=none;" vertex="1" parent="1">
          <mxGeometry x="160" y="1060" width="80" height="32.5" as="geometry" />
        </mxCell>
        <mxCell id="SHAmAD_ecb-zwq3bcNpp-191" style="edgeStyle=orthogonalEdgeStyle;shape=connector;rounded=0;orthogonalLoop=1;jettySize=auto;html=1;entryX=0.5;entryY=0;entryDx=0;entryDy=0;labelBackgroundColor=default;strokeColor=default;fontFamily=Helvetica;fontSize=11;fontColor=default;endArrow=classic;" edge="1" source="SHAmAD_ecb-zwq3bcNpp-192" target="SHAmAD_ecb-zwq3bcNpp-193" parent="1">
          <mxGeometry relative="1" as="geometry" />
        </mxCell>
        <mxCell id="SHAmAD_ecb-zwq3bcNpp-192" value="DVPD Compiler" style="rounded=1;whiteSpace=wrap;html=1;" vertex="1" parent="1">
          <mxGeometry x="90" y="1132.5" width="100" height="45" as="geometry" />
        </mxCell>
        <mxCell id="SHAmAD_ecb-zwq3bcNpp-207" style="edgeStyle=orthogonalEdgeStyle;shape=connector;rounded=0;orthogonalLoop=1;jettySize=auto;html=1;entryX=0;entryY=0.5;entryDx=0;entryDy=0;labelBackgroundColor=default;strokeColor=default;fontFamily=Helvetica;fontSize=10;fontColor=default;endArrow=classic;" edge="1" parent="1" source="SHAmAD_ecb-zwq3bcNpp-193" target="SHAmAD_ecb-zwq3bcNpp-206">
          <mxGeometry relative="1" as="geometry" />
        </mxCell>
        <mxCell id="SHAmAD_ecb-zwq3bcNpp-193" value="Basic pipeline properties" style="rounded=0;whiteSpace=wrap;html=1;fillColor=#F3AC0C;gradientColor=none;fontSize=10;" vertex="1" parent="1">
          <mxGeometry x="80" y="1215" width="120" height="20" as="geometry" />
        </mxCell>
        <mxCell id="SHAmAD_ecb-zwq3bcNpp-212" style="edgeStyle=orthogonalEdgeStyle;shape=connector;rounded=0;orthogonalLoop=1;jettySize=auto;html=1;labelBackgroundColor=default;strokeColor=default;fontFamily=Helvetica;fontSize=10;fontColor=default;endArrow=classic;" edge="1" parent="1" source="SHAmAD_ecb-zwq3bcNpp-194" target="SHAmAD_ecb-zwq3bcNpp-206">
          <mxGeometry relative="1" as="geometry" />
        </mxCell>
        <mxCell id="SHAmAD_ecb-zwq3bcNpp-194" value="inkrement &amp;amp; deletion propterties" style="rounded=0;whiteSpace=wrap;html=1;fillColor=#F3AC0C;gradientColor=none;fontSize=10;" vertex="1" parent="1">
          <mxGeometry x="80" y="1345" width="120" height="30" as="geometry" />
        </mxCell>
        <mxCell id="SHAmAD_ecb-zwq3bcNpp-210" style="edgeStyle=orthogonalEdgeStyle;shape=connector;rounded=0;orthogonalLoop=1;jettySize=auto;html=1;entryX=0;entryY=0.5;entryDx=0;entryDy=0;labelBackgroundColor=default;strokeColor=default;fontFamily=Helvetica;fontSize=10;fontColor=default;endArrow=classic;" edge="1" parent="1" source="SHAmAD_ecb-zwq3bcNpp-196" target="SHAmAD_ecb-zwq3bcNpp-206">
          <mxGeometry relative="1" as="geometry" />
        </mxCell>
        <mxCell id="SHAmAD_ecb-zwq3bcNpp-196" value="structure of &lt;br&gt;data vault tables" style="rounded=0;whiteSpace=wrap;html=1;fillColor=#F3AC0C;gradientColor=none;fontSize=10;" vertex="1" parent="1">
          <mxGeometry x="80" y="1285" width="120" height="30" as="geometry" />
        </mxCell>
        <mxCell id="SHAmAD_ecb-zwq3bcNpp-197" style="edgeStyle=orthogonalEdgeStyle;shape=connector;rounded=0;orthogonalLoop=1;jettySize=auto;html=1;labelBackgroundColor=default;strokeColor=default;fontFamily=Helvetica;fontSize=11;fontColor=default;endArrow=classic;" edge="1" source="SHAmAD_ecb-zwq3bcNpp-198" target="SHAmAD_ecb-zwq3bcNpp-192" parent="1">
          <mxGeometry relative="1" as="geometry" />
        </mxCell>
        <mxCell id="SHAmAD_ecb-zwq3bcNpp-198" value="model profile" style="shape=note;whiteSpace=wrap;html=1;backgroundOutline=1;darkOpacity=0.05;fillColor=#F3AC0C;gradientColor=none;size=24;" vertex="1" parent="1">
          <mxGeometry x="40" y="1062.5" width="90" height="30" as="geometry" />
        </mxCell>
        <mxCell id="SHAmAD_ecb-zwq3bcNpp-211" style="edgeStyle=orthogonalEdgeStyle;shape=connector;rounded=0;orthogonalLoop=1;jettySize=auto;html=1;entryX=0;entryY=0.5;entryDx=0;entryDy=0;labelBackgroundColor=default;strokeColor=default;fontFamily=Helvetica;fontSize=10;fontColor=default;endArrow=classic;" edge="1" parent="1" source="SHAmAD_ecb-zwq3bcNpp-200" target="SHAmAD_ecb-zwq3bcNpp-206">
          <mxGeometry relative="1" as="geometry" />
        </mxCell>
        <mxCell id="SHAmAD_ecb-zwq3bcNpp-200" value="structure of &lt;br&gt;stage table" style="rounded=0;whiteSpace=wrap;html=1;fillColor=#F3AC0C;gradientColor=none;fontSize=10;" vertex="1" parent="1">
          <mxGeometry x="80" y="1315" width="120" height="30" as="geometry" />
        </mxCell>
        <mxCell id="SHAmAD_ecb-zwq3bcNpp-214" style="edgeStyle=orthogonalEdgeStyle;shape=connector;rounded=0;orthogonalLoop=1;jettySize=auto;html=1;entryX=0;entryY=0.5;entryDx=0;entryDy=0;labelBackgroundColor=default;strokeColor=default;fontFamily=Helvetica;fontSize=10;fontColor=default;endArrow=classic;" edge="1" parent="1" source="SHAmAD_ecb-zwq3bcNpp-201" target="SHAmAD_ecb-zwq3bcNpp-206">
          <mxGeometry relative="1" as="geometry" />
        </mxCell>
        <mxCell id="SHAmAD_ecb-zwq3bcNpp-201" value="process step specifc mapping of data" style="rounded=0;whiteSpace=wrap;html=1;fillColor=#F3AC0C;gradientColor=none;fontSize=10;" vertex="1" parent="1">
          <mxGeometry x="80" y="1405" width="120" height="30" as="geometry" />
        </mxCell>
        <mxCell id="SHAmAD_ecb-zwq3bcNpp-213" style="edgeStyle=orthogonalEdgeStyle;shape=connector;rounded=0;orthogonalLoop=1;jettySize=auto;html=1;entryX=0;entryY=0.5;entryDx=0;entryDy=0;labelBackgroundColor=default;strokeColor=default;fontFamily=Helvetica;fontSize=10;fontColor=default;endArrow=classic;" edge="1" parent="1" source="SHAmAD_ecb-zwq3bcNpp-202" target="SHAmAD_ecb-zwq3bcNpp-206">
          <mxGeometry relative="1" as="geometry" />
        </mxCell>
        <mxCell id="SHAmAD_ecb-zwq3bcNpp-202" value="Fetch properties of fields" style="rounded=0;whiteSpace=wrap;html=1;fillColor=#F3AC0C;gradientColor=none;fontSize=10;" vertex="1" parent="1">
          <mxGeometry x="80" y="1375" width="120" height="30" as="geometry" />
        </mxCell>
        <mxCell id="SHAmAD_ecb-zwq3bcNpp-215" style="edgeStyle=orthogonalEdgeStyle;shape=connector;rounded=0;orthogonalLoop=1;jettySize=auto;html=1;entryX=0;entryY=0.5;entryDx=0;entryDy=0;labelBackgroundColor=default;strokeColor=default;fontFamily=Helvetica;fontSize=10;fontColor=default;endArrow=classic;" edge="1" parent="1" source="SHAmAD_ecb-zwq3bcNpp-203" target="SHAmAD_ecb-zwq3bcNpp-206">
          <mxGeometry relative="1" as="geometry" />
        </mxCell>
        <mxCell id="SHAmAD_ecb-zwq3bcNpp-203" value="process step specific hash key assembly mapping" style="rounded=0;whiteSpace=wrap;html=1;fillColor=#F3AC0C;gradientColor=none;fontSize=10;" vertex="1" parent="1">
          <mxGeometry x="80" y="1435" width="120" height="30" as="geometry" />
        </mxCell>
        <mxCell id="SHAmAD_ecb-zwq3bcNpp-209" style="edgeStyle=orthogonalEdgeStyle;shape=connector;rounded=0;orthogonalLoop=1;jettySize=auto;html=1;entryX=0;entryY=0.5;entryDx=0;entryDy=0;labelBackgroundColor=default;strokeColor=default;fontFamily=Helvetica;fontSize=10;fontColor=default;endArrow=classic;" edge="1" parent="1" source="SHAmAD_ecb-zwq3bcNpp-204" target="SHAmAD_ecb-zwq3bcNpp-206">
          <mxGeometry relative="1" as="geometry" />
        </mxCell>
        <mxCell id="SHAmAD_ecb-zwq3bcNpp-204" value="Mapping of fields to model" style="rounded=0;whiteSpace=wrap;html=1;fillColor=#F3AC0C;gradientColor=none;fontSize=10;" vertex="1" parent="1">
          <mxGeometry x="80" y="1260" width="120" height="25" as="geometry" />
        </mxCell>
        <mxCell id="SHAmAD_ecb-zwq3bcNpp-208" style="edgeStyle=orthogonalEdgeStyle;shape=connector;rounded=0;orthogonalLoop=1;jettySize=auto;html=1;entryX=0;entryY=0.5;entryDx=0;entryDy=0;labelBackgroundColor=default;strokeColor=default;fontFamily=Helvetica;fontSize=10;fontColor=default;endArrow=classic;" edge="1" parent="1" source="SHAmAD_ecb-zwq3bcNpp-205" target="SHAmAD_ecb-zwq3bcNpp-206">
          <mxGeometry relative="1" as="geometry" />
        </mxCell>
        <mxCell id="SHAmAD_ecb-zwq3bcNpp-205" value="Data Vault&amp;nbsp;Tables &amp;amp; Relations" style="rounded=0;whiteSpace=wrap;html=1;fillColor=#F3AC0C;gradientColor=none;fontSize=10;" vertex="1" parent="1">
          <mxGeometry x="80" y="1235" width="120" height="25" as="geometry" />
        </mxCell>
        <mxCell id="SHAmAD_ecb-zwq3bcNpp-217" style="edgeStyle=orthogonalEdgeStyle;shape=connector;rounded=0;orthogonalLoop=1;jettySize=auto;html=1;entryX=0;entryY=0.5;entryDx=0;entryDy=0;entryPerimeter=0;labelBackgroundColor=default;strokeColor=default;fontFamily=Helvetica;fontSize=10;fontColor=default;endArrow=classic;" edge="1" parent="1" source="SHAmAD_ecb-zwq3bcNpp-206" target="SHAmAD_ecb-zwq3bcNpp-216">
          <mxGeometry relative="1" as="geometry" />
        </mxCell>
        <mxCell id="SHAmAD_ecb-zwq3bcNpp-206" value="DVPD to VaultLoadTool Converter&lt;br&gt;(glue code)" style="rounded=1;whiteSpace=wrap;html=1;" vertex="1" parent="1">
          <mxGeometry x="275" y="1283.13" width="105" height="70" as="geometry" />
        </mxCell>
        <mxCell id="SHAmAD_ecb-zwq3bcNpp-219" style="edgeStyle=orthogonalEdgeStyle;shape=connector;rounded=0;orthogonalLoop=1;jettySize=auto;html=1;labelBackgroundColor=default;strokeColor=default;fontFamily=Helvetica;fontSize=10;fontColor=default;endArrow=classic;" edge="1" parent="1" source="SHAmAD_ecb-zwq3bcNpp-216" target="SHAmAD_ecb-zwq3bcNpp-218">
          <mxGeometry relative="1" as="geometry" />
        </mxCell>
        <mxCell id="SHAmAD_ecb-zwq3bcNpp-216" value="Importable&lt;br&gt;description for&lt;br&gt;VaultLoadTool" style="shape=note;whiteSpace=wrap;html=1;backgroundOutline=1;darkOpacity=0.05;size=15;" vertex="1" parent="1">
          <mxGeometry x="417.5" y="1293.13" width="105" height="50" as="geometry" />
        </mxCell>
        <mxCell id="SHAmAD_ecb-zwq3bcNpp-221" style="edgeStyle=orthogonalEdgeStyle;shape=connector;rounded=0;orthogonalLoop=1;jettySize=auto;html=1;labelBackgroundColor=default;strokeColor=default;fontFamily=Helvetica;fontSize=10;fontColor=default;endArrow=classic;exitX=1;exitY=0.25;exitDx=0;exitDy=0;" edge="1" parent="1" source="SHAmAD_ecb-zwq3bcNpp-218" target="SHAmAD_ecb-zwq3bcNpp-220">
          <mxGeometry relative="1" as="geometry" />
        </mxCell>
        <mxCell id="SHAmAD_ecb-zwq3bcNpp-218" value="VaultLoad Tool" style="rounded=1;whiteSpace=wrap;html=1;" vertex="1" parent="1">
          <mxGeometry x="570" y="1266.25" width="140" height="103.75" as="geometry" />
        </mxCell>
        <mxCell id="SHAmAD_ecb-zwq3bcNpp-220" value="Process&amp;nbsp; package" style="shape=cube;whiteSpace=wrap;html=1;boundedLbl=1;backgroundOutline=1;darkOpacity=0.05;darkOpacity2=0.1;fontFamily=Helvetica;fontSize=11;verticalAlign=bottom;labelPosition=center;verticalLabelPosition=top;align=center;fillColor=#f8cecc;strokeColor=#b85450;dashed=1;" vertex="1" parent="1">
          <mxGeometry x="805" y="1252.5" width="180" height="82.5" as="geometry" />
        </mxCell>
        <mxCell id="SHAmAD_ecb-zwq3bcNpp-223" value="Vault" style="shape=cylinder3;whiteSpace=wrap;html=1;boundedLbl=1;backgroundOutline=1;size=15;rounded=0;strokeColor=#b85450;fontFamily=Helvetica;fontSize=12;fillColor=#f8cecc;" vertex="1" parent="1">
          <mxGeometry x="960" y="400" width="120" height="63" as="geometry" />
        </mxCell>
        <mxCell id="SHAmAD_ecb-zwq3bcNpp-225" value="Source" style="rounded=1;whiteSpace=wrap;html=1;fillColor=#f8cecc;strokeColor=#b85450;" vertex="1" parent="1">
          <mxGeometry x="957.5" y="60" width="105" height="40" as="geometry" />
        </mxCell>
        <mxCell id="SHAmAD_ecb-zwq3bcNpp-226" value="" style="shape=flexArrow;endArrow=classic;html=1;rounded=0;labelBackgroundColor=default;strokeColor=#b85450;fontFamily=Helvetica;fontSize=10;fontColor=default;exitX=0;exitY=0;exitDx=100;exitDy=212.5;exitPerimeter=0;entryX=0.5;entryY=0;entryDx=0;entryDy=0;entryPerimeter=0;fillColor=#f8cecc;" edge="1" parent="1" source="SHAmAD_ecb-zwq3bcNpp-117" target="SHAmAD_ecb-zwq3bcNpp-223">
          <mxGeometry width="50" height="50" relative="1" as="geometry">
            <mxPoint x="870" y="442.5" as="sourcePoint" />
            <mxPoint x="1020" y="390" as="targetPoint" />
          </mxGeometry>
        </mxCell>
        <mxCell id="SHAmAD_ecb-zwq3bcNpp-227" value="" style="shape=flexArrow;endArrow=classic;html=1;rounded=0;labelBackgroundColor=default;strokeColor=#b85450;fontFamily=Helvetica;fontSize=10;fontColor=default;exitX=0.5;exitY=1;exitDx=0;exitDy=0;entryX=0.5;entryY=0;entryDx=0;entryDy=0;entryPerimeter=0;fillColor=#f8cecc;" edge="1" parent="1" source="SHAmAD_ecb-zwq3bcNpp-225">
          <mxGeometry width="50" height="50" relative="1" as="geometry">
            <mxPoint x="1009.5" y="105.25" as="sourcePoint" />
            <mxPoint x="1009.5" y="146.25" as="targetPoint" />
          </mxGeometry>
        </mxCell>
        <mxCell id="SHAmAD_ecb-zwq3bcNpp-228" value="" style="shape=flexArrow;endArrow=classic;html=1;rounded=0;labelBackgroundColor=default;strokeColor=#b85450;fontFamily=Helvetica;fontSize=10;fontColor=default;exitX=0.122;exitY=1.125;exitDx=0;exitDy=0;fillColor=#f8cecc;dashed=1;exitPerimeter=0;" edge="1" source="SHAmAD_ecb-zwq3bcNpp-229" parent="1">
          <mxGeometry width="50" height="50" relative="1" as="geometry">
            <mxPoint x="897" y="1195.25" as="sourcePoint" />
            <mxPoint x="669" y="1260" as="targetPoint" />
          </mxGeometry>
        </mxCell>
        <mxCell id="SHAmAD_ecb-zwq3bcNpp-229" value="Source" style="rounded=1;whiteSpace=wrap;html=1;fillColor=#f8cecc;strokeColor=#b85450;" vertex="1" parent="1">
          <mxGeometry x="630" y="1150" width="320" height="40" as="geometry" />
        </mxCell>
        <mxCell id="SHAmAD_ecb-zwq3bcNpp-230" value="" style="shape=flexArrow;endArrow=classic;html=1;rounded=0;labelBackgroundColor=default;strokeColor=#b85450;fontFamily=Helvetica;fontSize=10;fontColor=default;entryX=0.145;entryY=0;entryDx=0;entryDy=4.35;entryPerimeter=0;fillColor=#f8cecc;dashed=1;" edge="1" target="SHAmAD_ecb-zwq3bcNpp-231" parent="1">
          <mxGeometry width="50" height="50" relative="1" as="geometry">
            <mxPoint x="640" y="1370" as="sourcePoint" />
            <mxPoint x="901.25" y="1372" as="targetPoint" />
          </mxGeometry>
        </mxCell>
        <mxCell id="SHAmAD_ecb-zwq3bcNpp-231" value="Vault" style="shape=cylinder3;whiteSpace=wrap;html=1;boundedLbl=1;backgroundOutline=1;size=15;rounded=0;strokeColor=#b85450;fontFamily=Helvetica;fontSize=12;fillColor=#f8cecc;" vertex="1" parent="1">
          <mxGeometry x="580" y="1423.5" width="400" height="53" as="geometry" />
        </mxCell>
        <mxCell id="SHAmAD_ecb-zwq3bcNpp-234" value="" style="shape=flexArrow;endArrow=classic;html=1;rounded=0;labelBackgroundColor=default;strokeColor=#b85450;fontFamily=Helvetica;fontSize=10;fontColor=default;exitX=0.122;exitY=1.125;exitDx=0;exitDy=0;fillColor=#f8cecc;dashed=1;exitPerimeter=0;" edge="1" parent="1">
          <mxGeometry width="50" height="50" relative="1" as="geometry">
            <mxPoint x="894.5" y="1187.5" as="sourcePoint" />
            <mxPoint x="894.5" y="1252.5" as="targetPoint" />
          </mxGeometry>
        </mxCell>
        <mxCell id="SHAmAD_ecb-zwq3bcNpp-235" value="" style="shape=flexArrow;endArrow=classic;html=1;rounded=0;labelBackgroundColor=default;strokeColor=#b85450;fontFamily=Helvetica;fontSize=10;fontColor=default;exitX=0.122;exitY=1.125;exitDx=0;exitDy=0;fillColor=#f8cecc;dashed=1;exitPerimeter=0;entryX=0.74;entryY=-0.028;entryDx=0;entryDy=0;entryPerimeter=0;" edge="1" parent="1" target="SHAmAD_ecb-zwq3bcNpp-231">
          <mxGeometry width="50" height="50" relative="1" as="geometry">
            <mxPoint x="874.5" y="1335" as="sourcePoint" />
            <mxPoint x="874.5" y="1400" as="targetPoint" />
          </mxGeometry>
        </mxCell>
        <mxCell id="SHAmAD_ecb-zwq3bcNpp-236" value="Source" style="rounded=1;whiteSpace=wrap;html=1;fillColor=#f8cecc;strokeColor=#b85450;" vertex="1" parent="1">
          <mxGeometry x="813.75" y="607" width="105" height="40" as="geometry" />
        </mxCell>
        <mxCell id="SHAmAD_ecb-zwq3bcNpp-237" value="" style="shape=flexArrow;endArrow=classic;html=1;rounded=0;labelBackgroundColor=default;strokeColor=#b85450;fontFamily=Helvetica;fontSize=10;fontColor=default;exitX=0.5;exitY=1;exitDx=0;exitDy=0;entryX=0.5;entryY=0;entryDx=0;entryDy=0;entryPerimeter=0;fillColor=#f8cecc;" edge="1" source="SHAmAD_ecb-zwq3bcNpp-236" parent="1">
          <mxGeometry width="50" height="50" relative="1" as="geometry">
            <mxPoint x="865.75" y="652.25" as="sourcePoint" />
            <mxPoint x="865.75" y="693.25" as="targetPoint" />
          </mxGeometry>
        </mxCell>
        <mxCell id="SHAmAD_ecb-zwq3bcNpp-238" value="Vault" style="shape=cylinder3;whiteSpace=wrap;html=1;boundedLbl=1;backgroundOutline=1;size=15;rounded=0;strokeColor=#b85450;fontFamily=Helvetica;fontSize=12;fillColor=#f8cecc;" vertex="1" parent="1">
          <mxGeometry x="816.25" y="947" width="120" height="63" as="geometry" />
        </mxCell>
        <mxCell id="SHAmAD_ecb-zwq3bcNpp-239" value="" style="shape=flexArrow;endArrow=classic;html=1;rounded=0;labelBackgroundColor=default;strokeColor=#b85450;fontFamily=Helvetica;fontSize=10;fontColor=default;exitX=0;exitY=0;exitDx=100;exitDy=212.5;exitPerimeter=0;entryX=0.5;entryY=0;entryDx=0;entryDy=0;entryPerimeter=0;fillColor=#f8cecc;" edge="1" parent="1">
          <mxGeometry width="50" height="50" relative="1" as="geometry">
            <mxPoint x="869.5" y="912.5" as="sourcePoint" />
            <mxPoint x="869.5" y="953.5" as="targetPoint" />
          </mxGeometry>
        </mxCell>
      </root>
    </mxGraphModel>
  </diagram>
</mxfile>
